<?xml version="1.0" encoding="UTF-8"?>
<svg id="Layer_1" xmlns="http://www.w3.org/2000/svg" xmlns:xlink="http://www.w3.org/1999/xlink" version="1.1" viewBox="0 0 30 30">
  <!-- Generator: Adobe Illustrator 29.4.0, SVG Export Plug-In . SVG Version: 2.1.0 Build 152)  -->
  <defs>
    <style>
      .st0 {
        fill: none;
      }

      .st1 {
        fill: #d17b7b;
      }

      .st2 {
        fill: #fff;
      }

      .st3 {
        clip-path: url(#clippath);
      }
    </style>
    <clipPath id="clippath">
      <rect class="st0" y="0" width="28" height="28"/>
    </clipPath>
  </defs>
  <g class="st3">
    <g>
      <path class="st1" d="M28,14C28,6.3,21.7,0,14,0S0,6.3,0,14h0c0,7.7,6.3,14,14,14s14-6.3,14-14Z"/>
      <path class="st2" d="M26.3,16.5c0,.5-.2,1-.4,1.5h-10.4s0-.4,0-1.5"/>
      <path class="st2" d="M12.8,16.5H1.7c0,.5.2,1,.4,1.5h10.7s0-.7,0-1.5h0Z"/>
      <path class="st2" d="M14,26.5c5.2,0,9.6-3.1,11.5-7.6H2.5c1.9,4.5,6.3,7.6,11.5,7.6Z"/>
      <path class="st2" d="M21,10c-2.6-1.1-6,0-5.7,3.2-.3.3-.6.6-.9,1-.2-1-.5-2-.9-3,.2-.2.3-.5.4-.7.5-1,.7-2,0-3-1.1-1.8-3.8-2.5-5.7-2.8h-1c0-.1-.5-.1-.5-.1-.2,0-.3.2-.4.4,0,.3.2,1.1.2,1.4.4,1.6,1.3,4.7,2.7,5.6,1,.7,2.3.5,3.4,0,1,2.4,1.1,4.9.8,7.5,0,.5.8.6,1,0,0,0,0-.2,0-.2.2-1.1.1-2.2.1-3.3.3-.7.7-1.4,1.3-1.9,1,.5,2.3.9,3.3.2.9-.5,1.6-1.6,2-2.5.1-.3.2-.7.3-1v-.3c-.1-.3-.3-.4-.6-.5h0Z"/>
      <path class="st1" d="M14,1.5c6.9,0,12.5,5.6,12.5,12.5s-5.6,12.5-12.5,12.5S1.5,20.9,1.5,14,7.1,1.5,14,1.5ZM14,0C6.3,0,0,6.3,0,14s6.3,14,14,14,14-6.3,14-14S21.7,0,14,0Z"/>
    </g>
  </g>
</svg>